<svg xmlns="http://www.w3.org/2000/svg" viewBox="0 0 1543.25 1468.55"><defs><style>.cls-1,.cls-2,.cls-3{fill:none;stroke-linecap:round;stroke-linejoin:bevel;stroke-width:53px;}.cls-1{stroke:#006d36;}.cls-2{stroke:#007b3d;}.cls-3{stroke:#00a439;}</style></defs><g id="Слой_2" data-name="Слой 2"><g id="Слой_1-2" data-name="Слой 1"><path class="cls-1" d="M724,1421.41A697.64,697.64,0,0,1,452.47,81.31a697.64,697.64,0,0,1,543,1285.29A693.1,693.1,0,0,1,724,1421.41Z"/><path class="cls-1" d="M344.94,1308.51a5,5,0,0,1-5-5V144.4a5,5,0,0,1,10,0V1303.51A5,5,0,0,1,344.94,1308.51Z"/><path class="cls-1" d="M1160.58,1222.19a5,5,0,0,1-2.48-.66L369.87,771.58a5,5,0,0,1-.33-8.48l788.22-536.51a5,5,0,0,1,7.82,4.13v986.47a5,5,0,0,1-5,5Z"/><path class="cls-2" d="M765.9,1442.05A697.64,697.64,0,0,1,494.42,102a697.64,697.64,0,0,1,543,1285.29A693.11,693.11,0,0,1,765.9,1442.05Z"/><path class="cls-2" d="M386.89,1329.15a5,5,0,0,1-5-5V165a5,5,0,1,1,10,0V1324.15A5,5,0,0,1,386.89,1329.15Z"/><path class="cls-2" d="M1202.52,1242.83a4.94,4.94,0,0,1-2.47-.66l-788.23-450a5,5,0,0,1-.34-8.47l788.23-536.51a5,5,0,0,1,2.82-.87,4.93,4.93,0,0,1,2.33.58,5,5,0,0,1,2.66,4.42v986.47a5,5,0,0,1-5,5Z"/><path class="cls-3" d="M819.3,1442.05A697.64,697.64,0,0,1,547.82,102a697.63,697.63,0,0,1,543,1285.29A693.1,693.1,0,0,1,819.3,1442.05Z"/><path class="cls-3" d="M440.28,1329.15a5,5,0,0,1-5-5V165a5,5,0,1,1,10,0V1324.15A5,5,0,0,1,440.28,1329.15Z"/><path class="cls-3" d="M1255.92,1242.83a5,5,0,0,1-2.48-.66l-788.23-450a5,5,0,0,1-.33-8.47l788.23-536.51a4.93,4.93,0,0,1,2.81-.87,5,5,0,0,1,5,5v986.47a5,5,0,0,1-5,5Z"/></g></g></svg>