<svg xmlns="http://www.w3.org/2000/svg" viewBox="0 0 2000 2000"><defs><style>.cls-1{fill:#313130;}.cls-2,.cls-3,.cls-4{fill:none;stroke-linecap:round;stroke-linejoin:bevel;stroke-width:53px;}.cls-2{stroke:#006d36;}.cls-3{stroke:#007b3d;}.cls-4{stroke:#00a439;}</style></defs><g id="Слой_2" data-name="Слой 2"><g id="Слой_1-2" data-name="Слой 1"><rect class="cls-1" width="2000" height="2000"/><path class="cls-2" d="M957,1678.77A695.26,695.26,0,1,1,1228.45,1624,693.06,693.06,0,0,1,957,1678.77Z"/><path class="cls-2" d="M578,1565.87a5,5,0,0,1-5-5V401.76a5,5,0,0,1,10,0V1560.87A5,5,0,0,1,578,1565.87Z"/><path class="cls-2" d="M1393.59,1479.55a5,5,0,0,1-2.48-.66L602.89,1028.94a5,5,0,0,1-.34-8.48L1390.78,484a4.93,4.93,0,0,1,2.81-.87,5,5,0,0,1,5,5v986.47a5,5,0,0,1-5,5Z"/><path class="cls-3" d="M998.92,1699.41a695.26,695.26,0,1,1,271.48-54.81A693.11,693.11,0,0,1,998.92,1699.41Z"/><path class="cls-3" d="M619.9,1586.51a5,5,0,0,1-5-5V422.4a5,5,0,0,1,10,0V1581.51A5,5,0,0,1,619.9,1586.51Z"/><path class="cls-3" d="M1435.54,1500.19a5,5,0,0,1-2.48-.66l-788.23-450a5,5,0,0,1-.33-8.47l788.22-536.52a5.05,5.05,0,0,1,2.82-.86,5,5,0,0,1,5,5v986.47a5,5,0,0,1-5,5Z"/><path class="cls-4" d="M1052.31,1699.41a695.3,695.3,0,1,1,271.48-54.81A693.1,693.1,0,0,1,1052.31,1699.41Z"/><path class="cls-4" d="M673.3,1586.51a5,5,0,0,1-5-5V422.4a5,5,0,1,1,10,0V1581.51A5,5,0,0,1,673.3,1586.51Z"/><path class="cls-4" d="M1488.93,1500.19a5,5,0,0,1-2.48-.66l-788.22-450a5,5,0,0,1-.34-8.47l788.23-536.52a5,5,0,0,1,7.81,4.14v986.47a5,5,0,0,1-5,5Z"/></g></g></svg>